{
    "accessors" : [
        {
            "bufferView" : 0,
            "componentType" : 5121,
            "count" : 372,
            "max" : [
                191
            ],
            "min" : [
                0
            ],
            "type" : "SCALAR"
        },
        {
            "bufferView" : 1,
            "componentType" : 5126,
            "count" : 192,
            "max" : [
                1.0,
                1.0,
                1.0
            ],
            "min" : [
                -1.0,
                -1.0,
                -1.0
            ],
            "type" : "VEC3"
        },
        {
            "bufferView" : 2,
            "componentType" : 5126,
            "count" : 192,
            "max" : [
                0.9951847195625305,
                1.0,
                0.9951847195625305
            ],
            "min" : [
                -0.9951847791671753,
                -1.0,
                -0.9951847791671753
            ],
            "type" : "VEC3"
        },
        {
            "bufferView" : 3,
            "componentType" : 5121,
            "count" : 180,
            "max" : [
                179
            ],
            "min" : [
                0
            ],
            "type" : "SCALAR"
        },
        {
            "bufferView" : 4,
            "componentType" : 5126,
            "count" : 180,
            "max" : [
                7.889562129974365,
                7.041884899139404,
                -0.0
            ],
            "min" : [
                -7.817406177520752,
                -7.923501968383789,
                -2.269531011581421
            ],
            "type" : "VEC3"
        },
        {
            "bufferView" : 5,
            "componentType" : 5126,
            "count" : 180,
            "max" : [
                0.365123450756073,
                0.23285622894763947,
                0.965239405632019
            ],
            "min" : [
                -0.36020997166633606,
                -0.5104830861091614,
                -0.9669789671897888
            ],
            "type" : "VEC3"
        },
        {
            "bufferView" : 6,
            "componentType" : 5126,
            "count" : 180,
            "max" : [
                0.9925378561019897,
                0.9668769836425781,
                0.25992998480796814,
                -1.0
            ],
            "min" : [
                -0.9999992847442627,
                -0.9691800475120544,
                -0.17749349772930145,
                -1.0
            ],
            "type" : "VEC4"
        },
        {
            "bufferView" : 7,
            "componentType" : 5126,
            "count" : 180,
            "max" : [
                0.65625,
                0.9923530002124608
            ],
            "min" : [
                0.34375,
                0.3115599751472473
            ],
            "type" : "VEC2"
        }
    ],
    "asset" : {
        "generator" : "Khronos Blender glTF 2.0 exporter",
        "version" : "2.0"
    },
    "bufferViews" : [
        {
            "buffer" : 0,
            "byteLength" : 372,
            "byteOffset" : 0,
            "target" : 34963
        },
        {
            "buffer" : 0,
            "byteLength" : 2304,
            "byteOffset" : 372,
            "target" : 34962
        },
        {
            "buffer" : 0,
            "byteLength" : 2304,
            "byteOffset" : 2676,
            "target" : 34962
        },
        {
            "buffer" : 0,
            "byteLength" : 180,
            "byteOffset" : 4980,
            "target" : 34963
        },
        {
            "buffer" : 0,
            "byteLength" : 2160,
            "byteOffset" : 5160,
            "target" : 34962
        },
        {
            "buffer" : 0,
            "byteLength" : 2160,
            "byteOffset" : 7320,
            "target" : 34962
        },
        {
            "buffer" : 0,
            "byteLength" : 2880,
            "byteOffset" : 9480,
            "target" : 34962
        },
        {
            "buffer" : 0,
            "byteLength" : 1440,
            "byteOffset" : 12360,
            "target" : 34962
        }
    ],
    "buffers" : [
        {
            "byteLength" : 13800,
            "uri" : "StarredPin.bin"
        }
    ],
    "materials" : [
        {
            "emissiveFactor" : [
                0.5799999833106995,
                0.4555890476739677,
                0.013113242904512212
            ],
            "name" : "initialShadingGroup",
            "pbrMetallicRoughness" : {
                "baseColorFactor" : [
                    0.5518797039985657,
                    0.43350061381055127,
                    0.012477470380765077,
                    1.0
                ],
                "metallicFactor" : 0.0
            }
        },
        {
            "name" : "Material.001",
            "pbrMetallicRoughness" : {
                "baseColorFactor" : [
                    0.800000011920929,
                    0.800000011920929,
                    0.800000011920929,
                    1.0
                ],
                "metallicFactor" : 0.0
            }
        }
    ],
    "meshes" : [
        {
            "name" : "Cylinder",
            "primitives" : [
                {
                    "attributes" : {
                        "NORMAL" : 2,
                        "POSITION" : 1
                    },
                    "indices" : 0,
                    "material" : 1
                }
            ]
        },
        {
            "name" : "pCylinder1",
            "primitives" : [
                {
                    "attributes" : {
                        "NORMAL" : 5,
                        "POSITION" : 4,
                        "TANGENT" : 6,
                        "TEXCOORD_0" : 7
                    },
                    "indices" : 3,
                    "material" : 0
                }
            ]
        }
    ],
    "nodes" : [
        {
            "mesh" : 0,
            "name" : "Cylinder",
            "scale" : [
                -0.11783158779144287,
                -1.5258599519729614,
                -0.11783158779144287
            ],
            "translation" : [
                0.0,
                1.5258457660675049,
                -0.0
            ]
        },
        {
            "mesh" : 1,
            "name" : "pCylinder1",
            "rotation" : [
                1.0,
                0.0,
                -0.0,
                -1.6292068494294654e-07
            ],
            "scale" : [
                0.08338236808776855,
                0.08338236808776855,
                0.20622260868549347
            ],
            "translation" : [
                0.0,
                3.03623628616333,
                -0.24901442229747772
            ]
        }
    ],
    "scene" : 0,
    "scenes" : [
        {
            "name" : "Scene",
            "nodes" : [
                0,
                1
            ]
        }
    ]
}
